# xmcd CD database file
#
# Track frame offsets:
#	150
#	11997
#	25612
#	42535
#	62125
#	75535
#	89445
#	103687
#	122005
#	137949
#	157604
#	170363
#
# Disc length: 2466 seconds
#
# Revision: 0
# Processed by: cddbd v1.5.2PL0 Copyright (c) Steve Scherf et al.
# Submitted via: CDex 1.51
#
DISCID=9409a00c
DTITLE=Graeme McCardle - One More. No More
DYEAR=2009
DGENRE=Country
TTITLE0=Buicks To The Moon
TTITLE1=She Told Me So
TTITLE2=I Don't Know What She Said
TTITLE3=Does The Wind Still Blow In Oklahoma (w. Kelly McCardle)
TTITLE4=Long Black Limousine
TTITLE5=The More I Feel Like Rockin'
TTITLE6=Love Without End Amen (w. Kelly McCardle)
TTITLE7=Chain Of Love
TTITLE8=Islands In The Stream (w. Kelly McCardle)
TTITLE9=I Still Like Bologna
TTITLE10=Tonight Carmen
TTITLE11=Talking Optimist
EXTD=YEAR: 2009
EXTT0=
EXTT1=
EXTT2=
EXTT3=
EXTT4=
EXTT5=
EXTT6=
EXTT7=
EXTT8=
EXTT9=
EXTT10=
EXTT11=
PLAYORDER=
